<svg width="100" height="100" viewBox="0 0 100 100" fill="none" xmlns="http://www.w3.org/2000/svg">
<rect width="100" height="100" fill="#405425"/>
<path d="M62.3609 49.0718C60.8613 49.4577 59.1796 50.142 57.7528 51.4523C55.4596 53.5489 54.9719 58.9069 54.8845 60.2246C54.8772 60.4138 54.8699 60.5158 54.8699 60.5158C54.8699 60.5158 54.8699 60.4066 54.8845 60.2246C54.9427 58.8996 55.0592 53.4033 52.8243 51.1029C50.3637 48.5695 44.9402 48.4749 44.9402 48.4749C44.9402 48.4749 50.9752 48.504 53.545 46.1162C55.678 44.1361 56.4278 37.9555 56.6317 35.7133C56.6681 35.2037 56.7045 34.8251 56.7045 34.8251C56.7045 34.8251 56.6754 35.1964 56.6317 35.7133C56.4715 37.8681 56.2313 43.5755 58.1823 45.5338C59.4344 46.7859 60.9122 47.5285 62.2663 47.9726C66.8744 46.0216 70.0848 41.9303 70.0848 36.8053C70.0848 29.2852 64.4794 24 56.639 24H28V76H58.5608C66.7215 76 72.4799 70.3217 72.4799 62.2338C72.4799 55.893 68.3814 50.8335 62.3536 49.0645L62.3609 49.0718Z" fill="#FFFBE6"/>
</svg>
