<svg width="1292" height="958" viewBox="0 0 1292 958" fill="none" xmlns="http://www.w3.org/2000/svg">
<rect width="1292" height="957.196" fill="#041FFF"/>
<rect x="359.562" y="323.562" width="570.082" height="307.067" stroke="#FFAEF4" stroke-width="1.9748"/>
<rect x="352.822" y="316.822" width="18.0823" height="18.0823" fill="#FFAEF4" stroke="#FD83D3" stroke-width="1.64384"/>
<rect x="352.987" y="478.089" width="17.7513" height="17.7513" fill="#FFAEF4" stroke="#FD83D3" stroke-width="1.9748"/>
<rect x="921.753" y="478.089" width="17.7513" height="17.7513" fill="#FFAEF4" stroke="#FD83D3" stroke-width="1.9748"/>
<rect x="921.753" y="316.987" width="17.7513" height="17.7513" fill="#FFAEF4" stroke="#FD83D3" stroke-width="1.9748"/>
<rect x="352.987" y="622.749" width="17.7513" height="17.7513" fill="#FFAEF4" stroke="#FD83D3" stroke-width="1.9748"/>
<rect x="921.753" y="622.749" width="17.7513" height="17.7513" fill="#FFAEF4" stroke="#FD83D3" stroke-width="1.9748"/>
<path d="M430.215 430.754H446.992V522.895H430.215V430.754ZM578.803 430.754V445.695H530.832V522.895H514.187V445.695H466.085V430.754H578.803ZM695.003 430.754V445.433H614.79V469.55H692.382V484.098H614.79V508.346H695.003V522.895H598.013V430.754H695.003ZM858.935 430.754V522.895H842.159V446.089L795.499 522.895H780.164L733.503 446.089V522.895H716.727V430.754H743.071L787.897 503.628L832.591 430.754H858.935Z" fill="#F2F3E8"/>
</svg>
