<svg width="1292" height="958" viewBox="0 0 1292 958" fill="none" xmlns="http://www.w3.org/2000/svg">
<rect width="1292" height="957.196" fill="#405425"/>
<g clip-path="url(#clip0_348_1155)">
<path d="M601.002 440.066H628.048V523.004H601.002V440.066Z" fill="#FFFBE6"/>
<path d="M647.553 432.754H674.599V490.932H708.018V515.68H647.553V432.754Z" fill="#FFFBE6"/>
<path d="M723.568 443.328H750.614V501.506H784.033V526.254H723.568V443.328Z" fill="#FFFBE6"/>
<path d="M568.223 484.369C576.522 479.645 581.618 470.974 581.618 460.132C581.618 443.8 570.649 432.32 555.071 432.32H506.342V515.246H533.899V488.2H544.357L552.517 515.246H583.139L568.211 484.369H568.223Z" fill="#FFFBE6"/>
<path d="M831.88 431C807.387 431 790.289 448.737 790.289 473.995C790.289 499.254 807.387 516.99 831.88 516.99C856.372 516.99 873.47 499.254 873.47 473.995C873.47 448.737 856.372 431 831.88 431Z" fill="#FFFBE6"/>
<path d="M473.783 477.751C471.392 478.366 468.71 479.457 466.435 481.546C462.779 484.889 462.001 493.433 461.862 495.534C461.85 495.835 461.838 495.998 461.838 495.998C461.838 495.998 461.838 495.824 461.862 495.534C461.954 493.421 462.14 484.657 458.577 480.989C454.653 476.95 446.005 476.799 446.005 476.799C446.005 476.799 455.628 476.845 459.726 473.038C463.127 469.88 464.322 460.026 464.647 456.45C464.705 455.638 464.764 455.034 464.764 455.034C464.764 455.034 464.717 455.626 464.647 456.45C464.392 459.886 464.009 468.987 467.12 472.109C469.116 474.106 471.473 475.29 473.632 475.998C480.98 472.887 486.099 466.363 486.099 458.191C486.099 446.201 477.161 437.773 464.659 437.773H418.994V520.688H467.723C480.736 520.688 489.918 511.634 489.918 498.737C489.918 488.627 483.382 480.56 473.771 477.739L473.783 477.751Z" fill="#FFFBE6"/>
</g>
<defs>
<clipPath id="clip0_348_1155">
<rect width="454.467" height="95.2532" fill="white" transform="translate(419 431)"/>
</clipPath>
</defs>
</svg>
