<svg width="265" height="126" viewBox="0 0 265 126" fill="none" xmlns="http://www.w3.org/2000/svg">
<g clip-path="url(#clip0_372_4818)">
<rect width="265" height="125.526" fill="white"/>
<path d="M47.4839 90.3954C34.6007 86.2237 25.6438 70.273 14.4783 73.2177C9.8158 74.4447 8.71152 79.1072 7.23915 82.42C6.38027 84.5059 5.39869 86.101 3.43553 86.101C1.47237 86.101 -0.122698 84.5059 0 82.5427C0.368093 78.4937 6.01218 74.322 12.0244 69.6595C18.2819 64.8743 23.4352 62.0522 28.0977 61.0707C43.9257 49.5371 43.0668 34.9361 38.1589 24.5068C32.7602 12.8505 24.2941 8.55614 20.4905 11.3782C15.5826 15.0591 19.9997 20.2124 24.9076 25.9792C28.4658 30.2736 32.1467 34.9361 32.1467 39.7213C32.1467 44.8746 27.8523 48.0647 22.4536 52.4818C14.8464 58.7394 10.3066 61.4388 6.50297 61.4388C3.68093 61.4388 1.34967 59.1075 1.34967 56.2855C1.34967 53.3407 2.45395 50.7641 6.50297 51.0095C8.83422 51.1322 15.4599 54.8131 17.3003 52.3591C19.877 49.169 12.8832 41.4391 8.83422 36.0404C2.08586 27.2062 5.88948 18.9854 15.828 10.8874L19.1408 8.18804C33.0056 -3.10013 47.1158 0.0900094 53.4961 10.3966C56.5636 15.3045 57.9132 21.6848 56.6862 28.6785C57.6678 26.1019 58.5267 23.4025 59.2629 20.4578C62.9438 5.366 77.2994 -1.87315 86.6244 9.53771C96.4402 21.5621 84.784 30.2736 73.6185 36.0404C66.7474 39.5986 60.9807 42.1753 60.6126 44.7519C60.4899 45.3654 60.7353 45.9789 60.9807 46.4697C70.7965 35.9177 89.3238 34.1999 96.4402 46.9605C102.575 57.8805 94.2317 71.9907 81.7165 81.1931C71.2873 88.923 57.9132 93.8309 47.4839 90.3954ZM33.0056 60.7026C39.8767 61.0707 46.5024 65.1197 55.582 72.4815C68.2198 82.5427 74.8455 81.1931 79.7534 77.7575C84.9067 74.0766 85.8883 65.3651 80.1215 56.0401C75.7044 48.8009 69.0787 43.4022 62.2076 47.8193C64.5389 49.7825 68.956 51.2549 68.956 54.9358C68.956 60.7026 58.404 65.9786 47.3612 63.77C45.3981 63.4019 43.803 62.1749 43.803 60.2118C43.803 58.2486 45.3981 56.5309 47.3612 56.6536C50.7968 56.7763 54.355 64.0154 56.8089 61.1934C59.8764 57.7578 49.6925 54.0769 49.6925 48.8009C49.6925 45.7335 55.3366 43.6476 59.3856 41.3164L70.183 35.3042C77.1767 31.3779 76.5632 24.6295 73.6185 20.5805C70.4284 16.4088 64.5389 15.0591 61.3488 23.1571C58.1586 31.1325 54.1096 39.7213 48.8336 45.9789C45.03 51.0095 39.8767 56.0401 33.0056 60.7026ZM121.366 91.377C110.446 91.377 102.961 82.2973 102.961 73.4631V52.1137C102.961 44.9973 111.182 44.6292 116.949 40.0894C125.906 33.2183 133.758 25.6111 139.771 28.5558C145.783 31.746 139.648 45.4881 143.083 47.942C144.31 48.8009 145.169 47.942 146.764 46.1016C150.691 41.5618 154.862 48.6782 149.218 50.1506C147.255 50.6414 145.783 51.1322 144.556 52.1137C141.734 54.445 139.771 58.8621 136.458 60.8253C130.691 64.1381 125.783 64.7516 121.366 67.5736C124.065 76.4079 132.654 78.6164 137.808 76.0398C140.998 74.4447 142.102 72.4815 143.942 70.5184C147.746 66.5921 151.304 72.2361 147.01 74.322C133.758 80.7023 127.746 91.377 121.366 91.377ZM120.507 62.9111L120.63 64.6289C125.292 61.6842 127.869 61.8069 129.587 60.8253C126.397 58.8621 126.887 53.5861 126.887 47.942C126.887 44.0157 126.397 39.4759 122.838 41.1937C119.648 42.7887 120.016 55.9174 120.507 62.9111ZM175.755 123.278C167.902 121.315 168.515 106.223 163.485 106.223C159.804 106.223 160.417 109.782 157.963 112.236C155.264 115.058 150.602 111.622 153.792 108.8C156.246 106.714 158.822 104.874 161.154 102.665C166.061 97.8799 170.233 93.3401 175.509 94.5671C183.607 96.5302 182.012 116.407 192.441 109.168C201.889 102.542 186.552 87.4506 184.834 75.0582C184.712 74.0766 184.589 72.9723 184.466 71.868C180.294 83.0335 172.564 91.377 165.448 91.377C158.332 91.377 154.773 84.1378 154.773 75.0582V59.8437C154.773 50.0279 164.098 45.8562 169.988 39.9667C175.386 34.568 181.767 28.5558 187.165 28.5558C195.141 28.5558 197.84 38.7397 206.184 34.4453C207.779 33.5864 208.76 34.6907 209.006 35.9177C209.251 37.39 208.638 39.1078 206.797 39.2305C204.957 39.2305 203.239 37.8808 201.398 39.1078C197.84 52.6045 197.472 60.7026 200.294 68.6779C203.975 79.1072 209.619 84.1378 209.864 91.377C210.233 101.315 202.993 105.364 193.546 112.972C186.307 118.738 181.276 124.628 175.755 123.278ZM175.386 40.8256C169.742 43.893 169.129 75.4263 176 76.2852C180.908 76.8986 183.485 70.6411 184.834 63.77C184.957 62.2976 185.202 60.7026 185.448 59.2302V59.1075C186.307 54.6904 187.534 50.396 189.129 46.5924C188.638 46.7151 188.27 46.7151 187.902 46.7151C181.889 46.7151 179.19 38.7397 175.386 40.8256ZM231.4 91.377C221.093 91.377 211.4 83.647 211.4 69.6595V51.0095C211.4 43.4022 223.056 40.3348 228.946 35.3042C231.4 33.2183 232.872 29.6601 236.43 28.6785C245.51 26.2246 258.271 34.6907 261.952 46.9605C264.896 56.7763 262.197 69.046 247.596 80.2115C242.933 83.7697 237.289 91.377 231.4 91.377ZM228.332 60.7026C231.032 71.5 237.535 81.3158 245.387 76.2852C249.927 73.3404 248.7 62.543 245.142 53.4634C241.706 44.6292 236.062 37.2674 231.032 39.7213C226.492 41.9299 226.001 51.623 228.332 60.7026Z" fill="#180B06"/>
</g>
<defs>
<clipPath id="clip0_372_4818">
<rect width="265" height="125.526" fill="white"/>
</clipPath>
</defs>
</svg>
