<svg width="100" height="100" viewBox="0 0 100 100" fill="none" xmlns="http://www.w3.org/2000/svg">
<g clip-path="url(#clip0_372_4815)">
<rect width="100" height="100" fill="white"/>
<path d="M47.3726 93.3879C34.5195 89.226 25.5836 73.3127 14.4443 76.2505C9.79278 77.4746 8.69109 82.1262 7.22217 85.4313C6.36531 87.5122 5.38603 89.1036 3.42747 89.1036C1.46892 89.1036 -0.12241 87.5122 0 85.5537C0.367229 81.5142 5.99808 77.3522 11.9962 72.7007C18.2391 67.9267 23.3803 65.1113 28.0318 64.132C43.8227 52.6255 42.9658 38.0587 38.0694 27.6539C32.6834 16.025 24.2371 11.7406 20.4424 14.556C15.546 18.2283 19.9528 23.3695 24.8492 29.1228C28.3991 33.4071 32.0714 38.0587 32.0714 42.8327C32.0714 47.9739 27.787 51.1566 22.401 55.5633C14.8116 61.8062 10.2824 64.4992 6.48772 64.4992C3.67229 64.4992 1.34651 62.1734 1.34651 59.358C1.34651 56.4202 2.44819 53.8496 6.48772 54.0944C8.8135 54.2168 15.4236 57.8891 17.2598 55.4409C19.8304 52.2582 12.853 44.5464 8.8135 39.1604C2.08097 30.3469 5.87567 22.1454 15.7909 14.0664L19.0959 11.3734C32.9282 0.111691 47.0053 3.29435 53.3706 13.5768C56.4309 18.4732 57.7774 24.8385 56.5533 31.8158C57.5326 29.2452 58.3894 26.5522 59.1239 23.6144C62.7962 8.55796 77.1181 1.33579 86.4213 12.7199C96.214 24.7161 84.5851 33.4071 73.4458 39.1604C66.5909 42.7103 60.8376 45.2809 60.4704 47.8515C60.348 48.4635 60.5928 49.0756 60.8376 49.5652C70.6304 39.038 89.1143 37.3243 96.214 50.0549C102.335 60.9493 94.0107 75.0264 81.5249 84.2072C71.1201 91.919 57.7774 96.8154 47.3726 93.3879ZM32.9282 63.7648C39.7832 64.132 46.3933 68.1715 55.4516 75.5161C68.0598 85.5537 74.6699 84.2072 79.5663 80.7797C84.7075 77.1074 85.6868 68.4163 79.9336 59.1132C75.5268 51.891 68.9167 46.505 62.0617 50.9117C64.3875 52.8703 68.7943 54.3392 68.7943 58.0115C68.7943 63.7648 58.267 69.0284 47.2502 66.825C45.2916 66.4578 43.7003 65.2337 43.7003 63.2751C43.7003 61.3166 45.2916 59.6028 47.2502 59.7252C50.6776 59.8476 54.2275 67.0698 56.6757 64.2544C59.736 60.8269 49.5759 57.1546 49.5759 51.891C49.5759 48.8308 55.2068 46.7498 59.2463 44.424L70.0184 38.4259C76.9957 34.5088 76.3837 27.7763 73.4458 23.7368C70.2632 19.5748 64.3875 18.2283 61.2049 26.3074C58.0222 34.264 53.9827 42.8327 48.7191 49.0756C44.9244 54.0944 39.7832 59.1132 32.9282 63.7648Z" fill="#180B06"/>
</g>
<defs>
<clipPath id="clip0_372_4815">
<rect width="100" height="100" fill="white"/>
</clipPath>
</defs>
</svg>
