<svg width="1292" height="902" viewBox="0 0 1292 902" fill="none" xmlns="http://www.w3.org/2000/svg">
<rect width="1292" height="902" fill="black"/>
<rect x="372" y="355" width="191.466" height="191.466" rx="95.7328" fill="#CDFF07"/>
<path d="M467.734 513.91C502.63 513.91 530.918 485.622 530.918 450.727C530.918 415.831 502.63 387.543 467.734 387.543C432.839 387.543 404.551 415.831 404.551 450.727C404.551 485.622 432.839 513.91 467.734 513.91Z" stroke="black" stroke-width="10.5306" stroke-miterlimit="10"/>
<path d="M441.133 424.133L453.88 455.17" stroke="black" stroke-width="10.5306" stroke-miterlimit="10"/>
<path d="M493.229 416.914V448.506" stroke="black" stroke-width="10.5306" stroke-miterlimit="10"/>
<path d="M430.035 460.713L460.518 489.533L493.219 484.545L511.509 452.953" stroke="black" stroke-width="10.5306" stroke-miterlimit="10"/>
<path d="M629.185 432.501H650.034V438.148H623.273V401.2H649.559V406.848H629.185V416.402H647.448V421.944H629.185V432.501ZM680.377 438.148H673.885L666.865 428.278L659.95 438.148H653.405L663.645 424.161L653.616 410.173H660.056L666.865 419.885L673.674 410.173H680.113L670.137 424.108L680.377 438.148ZM696.547 438.94C692.289 438.94 688.806 437.55 686.096 434.77C683.422 431.99 682.084 428.401 682.084 424.003C682.084 419.674 683.404 416.155 686.043 413.446C688.682 410.701 692.096 409.329 696.283 409.329C700.013 409.329 703.092 410.385 705.52 412.496C707.948 414.572 709.356 417.387 709.743 420.941H703.884C703.532 418.935 702.67 417.387 701.298 416.296C699.925 415.17 698.254 414.607 696.283 414.607C693.89 414.607 691.92 415.487 690.371 417.246C688.858 419.006 688.102 421.258 688.102 424.003C688.102 426.818 688.894 429.14 690.477 430.97C692.096 432.765 694.172 433.662 696.705 433.662C700.822 433.662 703.215 431.515 703.884 427.222H709.743C709.285 430.952 707.913 433.838 705.626 435.879C703.374 437.92 700.347 438.94 696.547 438.94ZM728.894 409.329C732.025 409.329 734.577 410.261 736.547 412.126C738.518 413.991 739.503 416.419 739.503 419.41V438.148H733.591V419.569C733.591 418.126 733.063 416.947 732.008 416.032C730.987 415.082 729.65 414.607 727.996 414.607C725.885 414.607 724.161 415.188 722.824 416.349C721.486 417.51 720.8 419.041 720.765 420.941V438.148H714.748V398.561H720.765V413.129C722.56 410.596 725.269 409.329 728.894 409.329ZM771.116 432.712H772.541V438.148H770.06C766.717 438.148 764.694 437.128 763.99 435.087C762.09 437.48 758.975 438.676 754.647 438.676C751.551 438.676 749.017 437.92 747.046 436.407C745.111 434.893 744.143 432.888 744.143 430.389C744.143 428.172 744.794 426.395 746.096 425.058C747.434 423.721 749.035 422.841 750.9 422.419C752.8 421.962 754.682 421.645 756.547 421.469C758.448 421.258 760.049 421.029 761.351 420.783C762.688 420.536 763.356 420.097 763.356 419.463C763.356 417.845 762.811 416.578 761.72 415.663C760.664 414.748 759.169 414.29 757.234 414.29C755.369 414.29 753.82 414.695 752.589 415.504C751.392 416.279 750.741 417.299 750.636 418.566H744.83C745.111 415.751 746.395 413.516 748.683 411.862C750.97 410.173 753.82 409.329 757.234 409.329C760.999 409.329 763.937 410.314 766.048 412.285C768.16 414.22 769.215 416.947 769.215 420.466V430.706C769.215 432.043 769.849 432.712 771.116 432.712ZM755.808 433.873C758.166 433.873 760.013 433.328 761.351 432.237C762.688 431.146 763.356 429.703 763.356 427.909V424.847C763.04 425.269 762.142 425.568 760.664 425.744C759.187 425.92 757.673 426.044 756.125 426.114C754.612 426.149 753.24 426.501 752.008 427.17C750.776 427.838 750.161 428.823 750.161 430.125C750.161 431.322 750.671 432.254 751.691 432.923C752.712 433.556 754.084 433.873 755.808 433.873ZM790.797 409.329C793.928 409.329 796.48 410.261 798.45 412.126C800.421 413.991 801.406 416.419 801.406 419.41V438.148H795.494V419.569C795.494 418.126 794.966 416.947 793.911 416.032C792.89 415.082 791.553 414.607 789.899 414.607C787.788 414.607 786.064 415.205 784.727 416.402C783.425 417.563 782.738 419.076 782.668 420.941V438.148H776.704V410.173H781.454L781.982 414.079C783.776 410.912 786.715 409.329 790.797 409.329ZM829.222 410.173H833.761V436.987C833.761 440.752 832.512 443.779 830.014 446.066C827.515 448.388 824.26 449.55 820.249 449.55C816.378 449.55 813.229 448.652 810.801 446.858C808.408 445.098 807.211 442.758 807.211 439.837H813.07C813.07 441.245 813.721 442.353 815.023 443.163C816.36 443.972 818.102 444.377 820.249 444.377C822.501 444.377 824.331 443.708 825.738 442.371C827.146 441.034 827.849 439.239 827.849 436.987V435.14C825.703 437.673 822.958 438.94 819.615 438.94C815.639 438.94 812.402 437.585 809.903 434.876C807.405 432.131 806.156 428.577 806.156 424.214C806.156 419.85 807.405 416.279 809.903 413.499C812.402 410.719 815.639 409.329 819.615 409.329C823.451 409.329 826.495 410.842 828.747 413.868L829.222 410.173ZM820.143 433.662C822.395 433.662 824.243 432.747 825.685 430.917C827.128 429.087 827.849 426.712 827.849 423.791C827.849 421.082 827.128 418.883 825.685 417.194C824.278 415.469 822.43 414.607 820.143 414.607C817.821 414.607 815.921 415.522 814.443 417.352C813 419.147 812.278 421.434 812.278 424.214C812.278 426.958 813 429.228 814.443 431.023C815.921 432.782 817.821 433.662 820.143 433.662ZM866.069 423.158V426.008H845.009C845.326 428.436 846.223 430.319 847.701 431.656C849.179 432.993 851.026 433.662 853.243 433.662C856.797 433.662 859.084 432.237 860.105 429.386H865.964C865.295 432.377 863.835 434.718 861.583 436.407C859.366 438.096 856.586 438.94 853.243 438.94C848.915 438.94 845.449 437.568 842.845 434.823C840.241 432.043 838.939 428.524 838.939 424.266C838.939 419.622 840.241 415.98 842.845 413.34C845.484 410.666 848.809 409.329 852.821 409.329C856.762 409.329 859.929 410.578 862.322 413.076C864.75 415.575 865.999 418.935 866.069 423.158ZM852.821 414.607C850.921 414.607 849.302 415.17 847.965 416.296C846.663 417.387 845.765 418.918 845.273 420.888H859.894C859.507 418.953 858.697 417.422 857.466 416.296C856.234 415.17 854.686 414.607 852.821 414.607ZM655.946 492.668L651.037 495.94L646.551 491.77C643.489 494.55 639.636 495.94 634.991 495.94C630.804 495.94 627.391 494.92 624.751 492.879C622.147 490.838 620.845 488.199 620.845 484.961C620.845 482.287 621.549 480.088 622.957 478.363C624.399 476.639 626.335 475.126 628.763 473.824C626.757 471.115 625.754 468.528 625.754 466.065C625.754 463.496 626.634 461.42 628.393 459.837C630.153 458.218 632.44 457.409 635.255 457.409C638.035 457.409 640.305 458.183 642.064 459.731C643.859 461.279 644.756 463.285 644.756 465.748C644.756 467.895 644.105 469.689 642.803 471.132C641.501 472.54 639.671 473.877 637.314 475.144C639.355 477.431 642.047 480.105 645.39 483.167C646.445 480.739 646.973 477.924 646.973 474.721H653.043C653.043 479.683 652.04 483.923 650.034 487.442L655.946 492.668ZM635.361 462.898C634.34 462.898 633.496 463.215 632.827 463.848C632.194 464.446 631.877 465.238 631.877 466.223C631.877 467.631 632.616 469.302 634.094 471.238C637.12 469.654 638.633 467.93 638.633 466.065C638.633 465.15 638.334 464.393 637.736 463.795C637.138 463.197 636.346 462.898 635.361 462.898ZM634.991 490.292C637.736 490.292 640.129 489.413 642.17 487.653C637.63 483.29 634.323 480 632.247 477.783C628.728 479.789 626.968 482.041 626.968 484.539C626.968 486.298 627.69 487.706 629.132 488.762C630.575 489.782 632.528 490.292 634.991 490.292ZM687.418 495.94C682.667 495.94 678.884 494.902 676.069 492.826C673.254 490.75 671.706 487.847 671.424 484.117H677.653C677.829 486.123 678.761 487.688 680.45 488.814C682.175 489.905 684.497 490.451 687.418 490.451C689.846 490.451 691.816 489.958 693.329 488.973C694.878 487.988 695.652 486.703 695.652 485.12C695.652 483.431 694.966 482.217 693.593 481.478C692.256 480.703 690.022 480.017 686.89 479.419C682.949 478.645 680.222 477.924 678.708 477.255C674.873 475.496 672.955 472.575 672.955 468.493C672.955 465.22 674.239 462.564 676.808 460.523C679.412 458.447 682.773 457.409 686.89 457.409C690.866 457.409 694.104 458.411 696.602 460.417C699.135 462.423 700.684 465.203 701.247 468.757H695.018C694.667 466.927 693.769 465.502 692.326 464.481C690.919 463.461 689.107 462.951 686.89 462.951C684.497 462.951 682.544 463.479 681.031 464.534C679.553 465.555 678.814 466.892 678.814 468.546C678.814 469.461 678.99 470.235 679.342 470.868C679.729 471.466 680.31 471.959 681.084 472.346C681.858 472.698 682.702 472.997 683.617 473.243C684.532 473.455 685.676 473.701 687.048 473.982C687.435 474.053 687.734 474.106 687.945 474.141C689.599 474.457 690.954 474.757 692.01 475.038C693.065 475.284 694.279 475.707 695.652 476.305C697.059 476.868 698.15 477.519 698.924 478.258C699.734 478.962 700.42 479.912 700.983 481.108C701.581 482.269 701.88 483.624 701.88 485.172C701.88 488.304 700.525 490.891 697.816 492.932C695.142 494.937 691.675 495.94 687.418 495.94ZM721.729 466.329C724.86 466.329 727.412 467.261 729.382 469.126C731.353 470.991 732.338 473.419 732.338 476.41V495.148H726.426V476.569C726.426 475.126 725.899 473.947 724.843 473.032C723.822 472.082 722.485 471.607 720.831 471.607C718.72 471.607 716.996 472.188 715.659 473.349C714.321 474.51 713.635 476.041 713.6 477.941V495.148H707.583V455.561H713.6V470.129C715.395 467.596 718.104 466.329 721.729 466.329ZM741.518 463.215C740.357 463.215 739.389 462.828 738.615 462.053C737.841 461.279 737.454 460.312 737.454 459.15C737.454 458.024 737.841 457.074 738.615 456.3C739.389 455.526 740.357 455.139 741.518 455.139C742.644 455.139 743.594 455.526 744.368 456.3C745.142 457.074 745.529 458.024 745.529 459.15C745.529 460.312 745.142 461.279 744.368 462.053C743.594 462.828 742.644 463.215 741.518 463.215ZM738.562 495.148V467.173H744.474V495.148H738.562ZM765.178 466.329C768.31 466.329 770.861 467.261 772.832 469.126C774.802 470.991 775.788 473.419 775.788 476.41V495.148H769.876V476.569C769.876 475.126 769.348 473.947 768.292 473.032C767.272 472.082 765.935 471.607 764.281 471.607C762.17 471.607 760.445 472.205 759.108 473.402C757.806 474.563 757.12 476.076 757.05 477.941V495.148H751.085V467.173H755.836L756.363 471.079C758.158 467.912 761.096 466.329 765.178 466.329ZM807.668 480.158V483.008H786.607C786.924 485.436 787.821 487.319 789.299 488.656C790.777 489.993 792.625 490.662 794.842 490.662C798.396 490.662 800.683 489.237 801.703 486.386H807.562C806.894 489.377 805.433 491.718 803.181 493.407C800.964 495.096 798.184 495.94 794.842 495.94C790.513 495.94 787.047 494.568 784.443 491.823C781.839 489.043 780.537 485.524 780.537 481.266C780.537 476.622 781.839 472.98 784.443 470.34C787.082 467.666 790.408 466.329 794.419 466.329C798.36 466.329 801.527 467.578 803.92 470.076C806.348 472.575 807.597 475.935 807.668 480.158ZM794.419 471.607C792.519 471.607 790.9 472.17 789.563 473.296C788.261 474.387 787.364 475.918 786.871 477.888H801.492C801.105 475.953 800.296 474.422 799.064 473.296C797.833 472.17 796.284 471.607 794.419 471.607Z" fill="#CDFF07"/>
</svg>
